# File created by Blade
# Date/Time:  Wed Jan 21 17:34:14 2015
#---------------------------------------------------------
:version 1.10
:name HOM
:units
  mass 1.0
  length 1.000000
  angle deg
:documentation
     Acclaim Skeleton File
:root
   axis xyz
   order TX TY TZ RX RY RZ
   position 0.000000 0.000000 0.000000
   orientation 0 0 0
:bonedata
   begin
      id 1
      name Spine_dum
      direction 0.000000 1.000000 0.000000
      length 7.067664
      axis 0.0 0.0 0.0 xyz
   end
   begin
      id 2
      name LeftUpLeg_dum
      direction 1.000000 0.000000 0.000000
      length 4.013002
      axis 0.0 0.0 0.0 xyz
   end
   begin
      id 3
      name RightUpLeg_dum
      direction -1.000000 0.000000 0.000000
      length 4.013002
      axis 0.0 0.0 0.0 xyz
   end
   begin
      id 4
      name Spine
      direction 0.000000 1.000000 0.000000
      length 0.000000
      axis 0.0 0.0 0.0 xyz
      dof rx ry rz
   end
   begin
      id 5
      name Spine_dum1
      direction 0.000000 1.000000 0.000000
      length 15.039886
      axis 0.0 0.0 0.0 xyz
   end
   begin
      id 6
      name Spine_dum2
      direction 0.000000 1.000000 0.000000
      length 10.530368
      axis 0.0 0.0 0.0 xyz
   end
   begin
      id 7
      name Spine_dum3
      direction 0.000000 1.000000 0.000000
      length 10.530368
      axis 0.0 0.0 0.0 xyz
   end
   begin
      id 8
      name Head
      direction 0.000000 1.000000 0.000000
      length 4.527550
      axis 0.0 0.0 0.0 xyz
      dof rx ry rz
   end
   begin
      id 9
      name LeftShoulder
      direction 1.000000 0.000000 0.000000
      length 7.028855
      axis 0.0 0.0 -90.0 xyz
      dof rx ry rz
   end
   begin
      id 10
      name LeftArm
      direction 1.000000 0.000000 0.000000
      length 10.797705
      axis 0.0 0.0 -90.0 xyz
      dof rx ry rz
   end
   begin
      id 11
      name LeftForeArm
      direction 1.000000 0.000000 0.000000
      length 7.907442
      axis 0.0 0.0 -90.0 xyz
      dof ry rz rx
   end
   begin
      id 12
      name LeftHand
      direction 0.000000 0.000000 0.000000
      length 0.000000
      axis 0.0 0.0 -90.0 xyz
      dof rx ry rz
   end
   begin
      id 13
      name LeftHand_dum1
      direction 0.000000 0.000000 0.000000
      length 0.000000
      axis 0.0 0.0 -90.0 xyz
   end
   begin
      id 14
      name LeftHand_dum2
      direction 1.000000 0.000000 0.000000
      length 3.937000
      axis 0.0 0.0 -90.0 xyz
   end
   begin
      id 15
      name LeftHandThumb1
      direction 0.000000 0.000000 1.000000
      length 3.937000
      axis 0.0 0.0 -90.0 xyz
      dof rx rz ry
   end
   begin
      id 16
      name RightShoulder
      direction -1.000000 0.000000 0.000000
      length 7.028855
      axis 0.0 0.0 90.0 xyz
      dof rx ry rz
   end
   begin
      id 17
      name RightArm
      direction -1.000000 0.000000 0.000000
      length 10.797705
      axis 0.0 0.0 90.0 xyz
      dof rx ry rz
   end
   begin
      id 18
      name RightForeArm
      direction -1.000000 0.000000 0.000000
      length 7.907442
      axis 0.0 0.0 90.0 xyz
      dof ry rz rx
   end
   begin
      id 19
      name RightHand
      direction 0.000000 0.000000 0.000000
      length 0.000000
      axis 0.0 0.0 90.0 xyz
      dof rx ry rz
   end
   begin
      id 20
      name RightHand_dum1
      direction 0.000000 0.000000 0.000000
      length 0.000000
      axis 0.0 0.0 90.0 xyz
   end
   begin
      id 21
      name RightHand_dum2
      direction -1.000000 0.000000 0.000000
      length 3.937000
      axis 0.0 0.0 90.0 xyz
   end
   begin
      id 22
      name RightHandThumb1
      direction 0.000000 0.000000 1.000000
      length 3.937000
      axis 0.0 0.0 90.0 xyz
      dof rx rz ry
   end
   begin
      id 23
      name LeftUpLeg
      direction 0.000000 -1.000000 0.000000
      length 16.899758
      axis 0.0 0.0 0.0 xyz
      dof rx ry rz
   end
   begin
      id 24
      name LeftLeg
      direction 0.000000 -1.000000 0.000000
      length 17.389183
      axis 0.0 0.0 0.0 xyz
      dof rx ry rz
   end
   begin
      id 25
      name LeftFoot
      direction 0.000000 -0.258819 0.965926
      length 4.924528
      axis 15.0 0.0 0.0 xyz
      dof rx ry rz
   end
   begin
      id 26
      name LeftToeBase
      direction 0.000000 0.000000 1.000000
      length 2.952750
      axis 0.0 0.0 0.0 xyz
      dof rx ry rz
   end
   begin
      id 27
      name RightUpLeg
      direction 0.000000 -1.000000 0.000000
      length 16.899758
      axis 0.0 0.0 0.0 xyz
      dof rx ry rz
   end
   begin
      id 28
      name RightLeg
      direction 0.000000 -1.000000 0.000000
      length 17.389183
      axis 0.0 0.0 0.0 xyz
      dof rx ry rz
   end
   begin
      id 29
      name RightFoot
      direction 0.000000 -0.258819 0.965926
      length 4.924528
      axis 15.0 0.0 0.0 xyz
      dof rx ry rz
   end
   begin
      id 30
      name RightToeBase
      direction 0.000000 0.000000 1.000000
      length 2.952750
      axis 0.0 0.0 0.0 xyz
      dof rx ry rz
   end
:hierarchy
   begin
      root Spine_dum LeftUpLeg_dum RightUpLeg_dum
      Spine_dum Spine
      LeftUpLeg_dum LeftUpLeg
      RightUpLeg_dum RightUpLeg
      Spine Spine_dum1 Spine_dum2 Spine_dum3
      Spine_dum1 Head
      Spine_dum2 LeftShoulder
      Spine_dum3 RightShoulder
      LeftShoulder LeftArm
      LeftArm LeftForeArm
      LeftForeArm LeftHand
      LeftHand LeftHand_dum1 LeftHand_dum2
      LeftHand_dum1 LeftHandThumb1
      RightShoulder RightArm
      RightArm RightForeArm
      RightForeArm RightHand
      RightHand RightHand_dum1 RightHand_dum2
      RightHand_dum1 RightHandThumb1
      LeftUpLeg LeftLeg
      LeftLeg LeftFoot
      LeftFoot LeftToeBase
      RightUpLeg RightLeg
      RightLeg RightFoot
      RightFoot RightToeBase
   end

# File created by Blade
# Date/Time:  Wed Jan 21 17:34:04 2015
# Frame Rate: 120.000 fps
#------------------------------------------------------
:FULLY-SPECIFIED
:DEGREES
153
root 20.394013 35.562372 -16.742453 -173.819546 2.241013 -179.745236
Spine 34.181098 5.511853 -1.368839
Head 11.307237 -4.309573 2.430145
LeftShoulder 6.561780 -28.110101 -4.588697
LeftArm 6.781169 28.480600 -81.355618
LeftForeArm 10.861281 -0.000000 10.716304
LeftHand -1.550602 -0.000000 5.194136
LeftHandThumb1 -26.253704 0.000000 33.147579
RightShoulder 5.279037 -4.812578 4.288797
RightArm 31.802088 -9.677893 71.386723
RightForeArm -25.482880 -0.000000 15.609980
RightHand -1.146004 0.000000 -0.931248
RightHandThumb1 -24.326973 -0.000000 -32.862282
LeftUpLeg -15.720246 6.508135 -0.829680
LeftLeg 12.012919 -0.000000 -0.000000
LeftFoot -19.774256 29.564493 -10.820962
LeftToeBase 20.356290 -0.000000 -0.000000
RightUpLeg -17.022682 -3.663187 4.988649
RightLeg 12.743695 -0.000000 -0.000000
RightFoot -19.740689 -26.669976 14.422918
RightToeBase 24.211201 -0.000000 -0.000000
154
root 20.481817 35.545870 -16.692228 -173.601221 2.080545 -179.613006
Spine 34.654889 5.493909 -1.074418
Head 10.759121 -4.381857 2.361271
LeftShoulder 6.388343 -28.020778 -4.410093
LeftArm 7.135971 28.017963 -81.073109
LeftForeArm 10.227665 -0.000000 11.679028
LeftHand -1.667467 -0.000000 5.370383
LeftHandThumb1 -26.253704 0.000000 33.147579
RightShoulder 5.447742 -4.713708 3.938360
RightArm 31.884684 -9.656100 71.411044
RightForeArm -25.742589 -0.000000 15.860621
RightHand -1.145357 -0.000000 -1.676407
RightHandThumb1 -24.326973 -0.000000 -32.862282
LeftUpLeg -16.481085 6.007719 -0.544351
LeftLeg 12.941498 -0.000000 -0.000000
LeftFoot -20.191118 29.878412 -10.871708
LeftToeBase 19.527800 -0.000000 -0.000000
RightUpLeg -17.415578 -4.007188 5.330677
RightLeg 12.913978 -0.000000 -0.000000
RightFoot -19.742245 -26.434171 14.491273
RightToeBase 24.081810 -0.000000 -0.000000
155
root 20.562896 35.526180 -16.637889 -173.348323 1.966126 -179.491768
Spine 35.101037 5.497619 -0.824265
Head 10.189051 -4.424360 2.342790
LeftShoulder 6.257714 -28.145794 -4.215778
LeftArm 7.190699 27.340611 -80.986827
LeftForeArm 9.982921 -0.000000 12.650595
LeftHand -1.774440 -0.000000 5.469066
LeftHandThumb1 -26.253704 0.000000 33.147579
RightShoulder 5.602465 -4.629691 3.608527
RightArm 32.044829 -9.732464 71.290782
RightForeArm -25.889472 -0.000000 16.141951
RightHand -1.219604 0.000000 -2.101903
RightHandThumb1 -24.326973 -0.000000 -32.862282
LeftUpLeg -17.334601 5.630730 -0.300795
LeftLeg 13.981537 -0.000000 -0.000000
LeftFoot -20.669549 30.086812 -10.734424
LeftToeBase 18.790681 -0.000000 -0.000000
RightUpLeg -17.891775 -4.321529 5.645256
RightLeg 13.203201 -0.000000 -0.000000
RightFoot -19.700625 -26.070359 14.428523
RightToeBase 23.976657 -0.000000 -0.000000
156
root 20.649146 35.503970 -16.583852 -173.093234 1.885468 -179.381663
Spine 35.543436 5.593676 -0.620444
Head 9.668503 -4.518248 2.425272
LeftShoulder 6.152487 -28.099478 -3.969462
LeftArm 7.456733 26.826382 -80.764270
LeftForeArm 9.473734 -0.000000 13.628889
LeftHand -1.774115 -0.000000 5.410086
LeftHandThumb1 -26.253704 0.000000 33.147579
RightShoulder 5.710744 -4.561381 3.380757
RightArm 32.263484 -9.808150 71.086825
RightForeArm -25.851030 0.000000 16.407493
RightHand -1.301367 0.000000 -2.244727
RightHandThumb1 -24.326973 -0.000000 -32.862282
LeftUpLeg -18.189653 5.155250 -0.053091
LeftLeg 15.042978 -0.000000 -0.000000
LeftFoot -21.231756 30.407531 -10.600249
LeftToeBase 18.226959 -0.000000 -0.000000
RightUpLeg -18.417489 -4.664147 5.968642
RightLeg 13.575607 -0.000000 -0.000000
RightFoot -19.730444 -25.665774 14.379789
RightToeBase 23.982601 -0.000000 -0.000000
157
root 20.727765 35.478998 -16.529522 -172.812786 1.682579 -179.311380
Spine 35.944834 5.516688 -0.465024
Head 9.206162 -4.550332 2.530577
LeftShoulder 6.063641 -28.123487 -3.743669
LeftArm 7.607783 26.256326 -80.586852
LeftForeArm 9.163451 -0.000000 14.583065
LeftHand -1.845899 0.000000 5.737864
LeftHandThumb1 -26.253704 0.000000 33.147579
RightShoulder 5.847501 -4.448581 3.160249
RightArm 32.436057 -9.493300 71.146447
RightForeArm -26.338148 -0.000000 16.594923
RightHand -1.207065 0.000000 -2.289314
RightHandThumb1 -24.326973 -0.000000 -32.862282
LeftUpLeg -19.090548 4.509693 0.163908
LeftLeg 16.098620 -0.000000 -0.000000
LeftFoot -21.695485 30.786303 -10.527326
LeftToeBase 17.555108 -0.000000 -0.000000
RightUpLeg -18.977106 -5.193181 6.286685
RightLeg 13.943085 -0.000000 -0.000000
RightFoot -19.799856 -25.265290 14.278824
RightToeBase 24.048635 -0.000000 -0.000000
158
root 20.801587 35.453589 -16.472180 -172.524562 1.475576 -179.261124
Spine 36.369297 5.447921 -0.330539
Head 8.698744 -4.601354 2.676722
LeftShoulder 6.036607 -28.181625 -3.526239
LeftArm 7.735327 25.737912 -80.410489
LeftForeArm 8.793789 -0.000000 15.509743
LeftHand -1.819785 -0.000000 6.039465
LeftHandThumb1 -26.253704 0.000000 33.147579
RightShoulder 5.954957 -4.304270 2.982646
RightArm 32.657285 -9.480727 70.919979
RightForeArm -26.628301 -0.000000 16.825135
RightHand -1.332543 -0.000000 -2.688487
RightHandThumb1 -24.326973 -0.000000 -32.862282
LeftUpLeg -19.975407 3.699989 0.390603
LeftLeg 17.106081 -0.000000 -0.000000
LeftFoot -22.094397 31.281488 -10.544189
LeftToeBase 16.778849 -0.000000 -0.000000
RightUpLeg -19.562277 -5.612900 6.556585
RightLeg 14.335433 -0.000000 -0.000000
RightFoot -19.904750 -24.949776 14.225284
RightToeBase 24.148094 -0.000000 -0.000000
159
root 20.871073 35.428736 -16.420628 -172.302556 1.273591 -179.264611
Spine 36.897424 5.346521 -0.313617
Head 8.127423 -4.591327 2.908331
LeftShoulder 5.976198 -28.304237 -3.227598
LeftArm 7.840859 25.236408 -80.259963
LeftForeArm 8.341618 -0.000000 16.387021
LeftHand -1.795799 -0.000000 6.021360
LeftHandThumb1 -26.253704 0.000000 33.147579
RightShoulder 6.044466 -4.199092 2.899367
RightArm 33.051751 -9.536380 70.545274
RightForeArm -26.595496 -0.000000 16.986713
RightHand -1.495436 -0.000000 -2.952909
RightHandThumb1 -24.326973 -0.000000 -32.862282
LeftUpLeg -20.781678 2.979494 0.549090
LeftLeg 18.072808 -0.000000 -0.000000
LeftFoot -22.491946 31.736369 -10.634628
LeftToeBase 16.228960 -0.000000 -0.000000
RightUpLeg -20.089951 -6.055790 6.771093
RightLeg 14.754716 -0.000000 -0.000000
RightFoot -20.005168 -24.647060 14.024097
RightToeBase 24.225656 -0.000000 -0.000000
160
root 20.941995 35.401462 -16.363840 -172.056494 1.180894 -179.273402
Spine 37.411415 5.364929 -0.322239
Head 7.581803 -4.624268 3.133574
LeftShoulder 5.925139 -28.317760 -2.917270
LeftArm 8.141487 24.990231 -79.966647
LeftForeArm 7.850644 0.000000 17.158614
LeftHand -1.647098 -0.000000 6.340254
LeftHandThumb1 -26.253704 0.000000 33.147579
RightShoulder 6.156626 -4.005645 2.802608
RightArm 33.328486 -9.535433 70.199046
RightForeArm -26.611492 0.000000 17.230349
RightHand -1.665583 -0.000000 -3.062167
RightHandThumb1 -24.326973 -0.000000 -32.862282
LeftUpLeg -21.652717 2.293375 0.686277
LeftLeg 19.108345 -0.000000 -0.000000
LeftFoot -23.152370 32.252773 -11.085522
LeftToeBase 16.025067 -0.000000 -0.000000
RightUpLeg -20.658147 -6.260223 6.958670
RightLeg 15.195684 -0.000000 -0.000000
RightFoot -20.118495 -24.507936 13.879052
RightToeBase 24.259304 -0.000000 -0.000000
161
root 21.009643 35.379741 -16.310656 -171.900839 1.018035 -179.332553
Spine 38.082954 5.339763 -0.379758
Head 6.921556 -4.623908 3.443417
LeftShoulder 6.030643 -28.601247 -2.595462
LeftArm 8.150378 24.467664 -79.864654
LeftForeArm 7.593465 -0.000000 17.864209
LeftHand -1.478871 -0.000000 6.595276
LeftHandThumb1 -26.253704 0.000000 33.147579
RightShoulder 6.251071 -3.810578 2.761375
RightArm 33.637896 -9.123454 70.136671
RightForeArm -26.893797 -0.000000 17.440821
RightHand -1.655465 -0.000000 -3.197835
RightHandThumb1 -24.326973 -0.000000 -32.862282
LeftUpLeg -22.377386 1.526877 0.776639
LeftLeg 20.024553 -0.000000 -0.000000
LeftFoot -23.897676 32.669159 -11.592662
LeftToeBase 16.275923 -0.000000 -0.000000
RightUpLeg -21.088746 -6.572434 7.115631
RightLeg 15.535404 -0.000000 -0.000000
RightFoot -20.248176 -24.364521 13.756137
RightToeBase 24.298204 -0.000000 -0.000000
162
root 21.071954 35.358035 -16.259648 -171.796359 0.972939 -179.411138
Spine 38.856318 5.433797 -0.444760
Head 6.206273 -4.686427 3.700555
LeftShoulder 6.141787 -28.730153 -2.289940
LeftArm 8.438203 24.199247 -79.583049
LeftForeArm 7.192527 -0.000000 18.476164
LeftHand -1.394783 -0.000000 6.734554
LeftHandThumb1 -26.253704 0.000000 33.147579
RightShoulder 6.350848 -3.428008 2.721445
RightArm 33.797725 -8.914919 69.906772
RightForeArm -26.739108 -0.000000 17.742008
RightHand -1.709966 0.000000 -3.237532
RightHandThumb1 -24.326973 -0.000000 -32.862282
LeftUpLeg -23.007650 0.967668 0.791920
LeftLeg 20.886775 -0.000000 -0.000000
LeftFoot -24.756913 32.867444 -12.083637
LeftToeBase 16.479558 -0.000000 -0.000000
RightUpLeg -21.482860 -6.693229 7.200164
RightLeg 15.924298 -0.000000 -0.000000
RightFoot -20.335598 -24.305950 13.542714
RightToeBase 24.124381 -0.000000 -0.000000
163
root 21.124959 35.337456 -16.203525 -171.647296 0.927106 -179.542127
Spine 39.612343 5.515364 -0.573244
Head 5.444192 -4.703237 3.979195
LeftShoulder 6.327766 -29.014067 -1.980261
LeftArm 8.569144 23.774003 -79.416418
LeftForeArm 6.805249 0.000000 18.984758
LeftHand -1.232126 0.000000 7.494401
LeftHandThumb1 -26.253704 0.000000 33.147579
RightShoulder 6.422905 -3.207276 2.662570
RightArm 34.170355 -8.519205 69.759036
RightForeArm -26.686480 -0.000000 17.969769
RightHand -1.826068 -0.000000 -3.275952
RightHandThumb1 -24.326973 -0.000000 -32.862282
LeftUpLeg -23.684732 0.492849 0.692969
LeftLeg 21.709157 -0.000000 -0.000000
LeftFoot -25.410274 32.974098 -12.374780
LeftToeBase 16.344764 -0.000000 -0.000000
RightUpLeg -21.933512 -6.687713 7.197497
RightLeg 16.324078 -0.000000 -0.000000
RightFoot -20.492261 -24.332324 13.496733
RightToeBase 24.064881 -0.000000 -0.000000
164
root 21.180934 35.317283 -16.149480 -171.537286 0.862776 -179.661246
Spine 40.423865 5.564581 -0.701521
Head 4.694745 -4.712383 4.261498
LeftShoulder 6.505223 -29.216032 -1.661321
LeftArm 8.858916 23.514364 -79.120919
LeftForeArm 6.334491 -0.000000 19.414457
LeftHand -1.105493 -0.000000 7.936585
LeftHandThumb1 -26.253704 0.000000 33.147579
RightShoulder 6.573404 -2.922122 2.608211
RightArm 34.457504 -7.938915 69.743472
RightForeArm -26.613991 -0.000000 18.198385
RightHand -1.876430 -0.000000 -3.231075
RightHandThumb1 -24.326973 -0.000000 -32.862282
LeftUpLeg -24.325827 0.096872 0.572523
LeftLeg 22.545878 -0.000000 -0.000000
LeftFoot -25.892324 32.786805 -12.468605
LeftToeBase 16.702235 -0.000000 -0.000000
RightUpLeg -22.358644 -6.740922 7.218734
RightLeg 16.754184 -0.000000 -0.000000
RightFoot -20.519394 -24.409956 13.245498
RightToeBase 24.050990 -0.000000 -0.000000
165
root 21.235227 35.299908 -16.097252 -171.433527 0.850320 -179.789266
Spine 41.288292 5.742398 -0.819719
Head 3.886579 -4.723721 4.623470
LeftShoulder 6.853864 -29.574400 -1.367702
LeftArm 8.995842 23.096131 -78.956564
LeftForeArm 6.165685 -0.000000 19.728015
LeftHand -1.062974 -0.000000 8.449258
LeftHandThumb1 -26.253704 0.000000 33.147579
RightShoulder 6.628688 -2.603592 2.615773
RightArm 34.768138 -7.436897 69.625769
RightForeArm -26.349253 -0.000000 18.409700
RightHand -1.914323 -0.000000 -3.284010
RightHandThumb1 -24.326973 -0.000000 -32.862282
LeftUpLeg -24.913120 -0.262905 0.416974
LeftLeg 23.297709 -0.000000 -0.000000
LeftFoot -26.322913 32.544968 -12.541772
LeftToeBase 16.914235 -0.000000 -0.000000
RightUpLeg -22.758971 -6.703424 7.210184
RightLeg 17.154440 -0.000000 -0.000000
RightFoot -20.593841 -24.445443 13.128447
RightToeBase 23.771548 -0.000000 -0.000000
